<svg width="297" height="420" viewBox="0 0 297 420" fill="none" xmlns="http://www.w3.org/2000/svg">
<g clip-path="url(#clip0_1_8586)">
<rect width="297" height="420" fill="#472652"/>
<path d="M105.119 354.012L113.271 379.291C114.524 383.497 113.987 392.653 105.753 394.864C97.1616 397.171 90.9863 391.105 86.5115 388.151C83.0211 385.108 80.0764 383.497 81.4102 382.244C83.3777 380.396 86.4126 381.605 88.1998 382.802C88.7596 383.177 89.4987 383.236 90.0593 382.862C90.608 382.497 90.8478 381.811 90.6468 381.183L84.5077 361.999C84.127 360.809 84.7517 359.53 85.9243 359.1C87.171 358.642 88.5479 359.316 88.9502 360.582L92.3158 371.169C92.4227 371.506 92.7777 371.696 93.1172 371.599C93.47 371.498 93.6704 371.127 93.5607 370.777L88.8657 355.783C88.5008 354.617 89.1231 353.372 90.2741 352.965C91.4919 352.533 92.8236 353.204 93.2023 354.439L97.8194 369.501C97.9072 369.788 98.1716 369.983 98.4712 369.983C98.9313 369.983 99.2592 369.537 99.1217 369.098L94.9099 355.649C94.5662 354.552 95.1381 353.377 96.2136 352.971C97.3661 352.536 98.6493 353.146 99.0389 354.315L103.551 367.85C103.676 368.228 104.098 368.417 104.464 368.26C104.788 368.121 104.953 367.757 104.842 367.422L100.882 355.393C100.505 354.248 101.107 353.011 102.24 352.601C103.427 352.171 104.732 352.812 105.119 354.012Z" fill="#8874CA"/>
<path d="M88.411 324.506L114.938 323.175C119.326 323.053 128.03 325.941 128.034 334.467C128.039 343.363 120.582 347.758 116.571 351.316C112.728 353.9 110.41 356.327 109.545 354.714C108.269 352.336 110.222 349.717 111.841 348.301C112.348 347.857 112.596 347.158 112.38 346.52C112.169 345.895 111.569 345.486 110.91 345.518L90.7906 346.482C89.5428 346.542 88.4695 345.608 88.3569 344.364C88.2373 343.041 89.2451 341.886 90.5718 341.825L101.67 341.314C102.022 341.298 102.298 341.004 102.292 340.651C102.286 340.284 101.979 339.994 101.612 340.01L85.9143 340.664C84.6943 340.715 83.6526 339.792 83.5568 338.574C83.4553 337.286 84.4478 336.174 85.7389 336.127L101.483 335.566C101.782 335.555 102.04 335.351 102.117 335.061C102.236 334.617 101.89 334.185 101.43 334.204L87.3499 334.791C86.2012 334.839 85.2145 333.983 85.1004 332.839C84.9781 331.613 85.8997 330.531 87.1294 330.458L101.371 329.603C101.768 329.579 102.061 329.221 102.004 328.827C101.953 328.477 101.644 328.224 101.292 328.244L88.6481 328.957C87.4443 329.025 86.4049 328.123 86.3023 326.922C86.1948 325.665 87.1511 324.569 88.411 324.506Z" fill="#8874CA"/>
<path d="M52.6623 360.235L31.0213 344.835C27.5033 342.211 22.4635 334.549 27.7447 327.856C33.2556 320.873 41.8318 322.047 47.1846 321.741C51.8016 322.096 55.1254 321.628 54.8046 323.43C54.3313 326.087 51.1751 326.931 49.0269 327.039C48.354 327.073 47.7261 327.468 47.4999 328.102C47.2785 328.723 47.4957 329.416 48.0322 329.8L64.4179 341.515C65.4341 342.241 65.6971 343.64 65.0142 344.686C64.2882 345.798 62.7812 346.08 61.7022 345.305L52.6773 338.827C52.3906 338.621 51.9921 338.68 51.7779 338.961C51.5552 339.253 51.6166 339.67 51.9138 339.886L64.6376 349.103C65.6265 349.82 65.8714 351.19 65.1921 352.205C64.4733 353.278 63.0047 353.536 61.9631 352.772L49.2608 343.453C49.0193 343.275 48.6904 343.277 48.4502 343.456C48.0813 343.731 48.085 344.285 48.4577 344.554L59.8707 352.822C60.8018 353.496 61.0451 354.78 60.4255 355.748C59.7615 356.786 58.3679 357.063 57.3572 356.359L45.652 348.201C45.3255 347.974 44.8741 348.074 44.6744 348.418C44.4974 348.724 44.5832 349.114 44.872 349.316L55.2352 356.595C56.2218 357.288 56.4784 358.64 55.8143 359.646C55.1195 360.699 53.6901 360.966 52.6623 360.235Z" fill="#8874CA"/>
<path d="M79.0496 377.231L57.5373 392.809C53.9256 395.303 45.054 397.628 40.4023 390.483C35.5484 383.028 39.4041 375.278 40.8268 370.108C42.6394 365.847 43.2594 362.549 44.8637 363.429C47.2304 364.727 47.0203 367.988 46.4355 370.057C46.2523 370.706 46.4252 371.427 46.9541 371.844C47.4719 372.253 48.1977 372.269 48.7327 371.883L65.0736 360.105C66.0871 359.375 67.4962 359.573 68.2689 360.555C69.0903 361.598 68.8754 363.116 67.7964 363.891L58.7713 370.369C58.4846 370.575 58.4134 370.972 58.6107 371.264C58.8158 371.569 59.2313 371.644 59.5303 371.431L72.3335 362.324C73.3286 361.617 74.7052 361.823 75.4492 362.791C76.2364 363.815 76.0111 365.289 74.9539 366.032L62.0614 375.086C61.8162 375.258 61.7122 375.57 61.8049 375.855C61.9474 376.292 62.4734 376.466 62.8483 376.199L74.3318 368.03C75.2686 367.364 76.5627 367.544 77.2821 368.441C78.0529 369.402 77.8699 370.811 76.8793 371.543L65.4063 380.024C65.0862 380.261 65.0367 380.72 65.2991 381.02C65.5317 381.285 65.9286 381.329 66.2132 381.12L76.4244 373.629C77.3965 372.916 78.7595 373.105 79.5005 374.056C80.2758 375.052 80.0713 376.491 79.0496 377.231Z" fill="#8874CA"/>
<path d="M58.5351 327.852L66.3569 302.469C67.7431 298.305 73.4342 291.113 81.447 294.025C89.8082 297.063 91.3874 305.574 93.359 310.56C94.4728 315.055 95.961 318.063 94.1498 318.325C91.478 318.71 89.6855 315.979 88.9081 313.973C88.6646 313.345 88.0929 312.873 87.4193 312.857C86.76 312.842 86.1706 313.266 85.9749 313.896L79.9999 333.132C79.6294 334.325 78.3843 335.014 77.1767 334.694C75.8927 334.355 75.1517 333.012 75.5481 331.745L78.864 321.142C78.9693 320.805 78.7878 320.445 78.4541 320.33C78.1073 320.21 77.7299 320.399 77.6189 320.749L72.8647 335.725C72.4952 336.888 71.2713 337.551 70.0946 337.225C68.8497 336.88 68.1434 335.567 68.5417 334.338L73.3991 319.351C73.4914 319.066 73.3869 318.754 73.1416 318.582C72.7647 318.319 72.24 318.496 72.1008 318.935L67.8372 332.367C67.4893 333.463 66.3471 334.097 65.233 333.813C64.0393 333.509 63.3382 332.273 63.6894 331.092L67.7571 317.417C67.8705 317.035 67.6337 316.638 67.2441 316.557C66.8986 316.484 66.5554 316.688 66.4535 317.026L62.7985 329.151C62.4505 330.306 61.2476 330.974 60.0837 330.66C58.8659 330.331 58.1636 329.058 58.5351 327.852Z" fill="#8874CA"/>
<mask id="mask0_1_8586" style="mask-type:alpha" maskUnits="userSpaceOnUse" x="123" y="222" width="95" height="124">
<path d="M141.48 224.184C156.266 218.337 172.992 225.584 178.838 240.37L184.571 254.868C184.62 254.992 184.665 255.116 184.707 255.241L184.772 255.215C189.767 253.241 195.417 255.689 197.392 260.684L217.239 310.877C219.214 315.872 216.766 321.522 211.771 323.497L157.508 344.953C152.513 346.928 146.863 344.48 144.888 339.485L125.041 289.292C123.066 284.297 125.514 278.647 130.509 276.672L169.625 261.205C169.57 261.085 169.517 260.963 169.468 260.839L163.193 244.969C160.644 238.524 153.354 235.365 146.909 237.913C140.464 240.462 137.305 247.753 139.853 254.197C140.977 257.041 139.583 260.258 136.739 261.383L130.563 263.825C128.478 264.649 126.119 263.627 125.294 261.542C119.448 246.756 126.695 230.03 141.48 224.184Z" fill="#79F5A7"/>
</mask>
<g mask="url(#mask0_1_8586)">
<g clip-path="url(#clip1_1_8586)">
<rect width="150.419" height="150.419" transform="translate(77.3979 222.003) rotate(-21.5742)" fill="#8874CA"/>
<path d="M200.767 264.519L199.999 264.823C191.517 268.177 181.827 263.768 178.35 254.974L178.035 254.179C174.558 245.385 164.867 240.976 156.385 244.33C147.904 247.684 143.848 257.527 147.326 266.322L147.64 267.117C151.117 275.911 147.062 285.755 138.58 289.108L106.336 301.858C97.8543 305.212 93.7991 315.055 97.2763 323.849C100.754 332.643 110.444 337.052 118.926 333.698L119.693 333.395C128.175 330.041 137.866 334.449 141.343 343.243L141.657 344.039C145.135 352.833 154.825 357.241 163.307 353.887L164.074 353.584C172.556 350.23 182.247 354.638 185.724 363.432L186.038 364.228C189.516 373.022 199.206 377.43 207.688 374.076C216.17 370.723 220.225 360.879 216.748 352.085L203.529 318.654C200.052 309.86 204.107 300.017 212.589 296.663L213.356 296.359C221.838 293.006 225.893 283.162 222.416 274.368C218.939 265.574 209.248 261.166 200.767 264.519Z" fill="#8874CA"/>
<rect x="99.3052" y="227.247" width="86.0685" height="57.379" transform="rotate(-21.5742 99.3052 227.247)" fill="#8874CA"/>
<circle cx="169.596" cy="295.414" r="10.2578" transform="rotate(-21.5742 169.596 295.414)" fill="#472652"/>
<path d="M175.578 301.108L184.823 314.76L171.772 319.921L169.053 303.689L175.578 301.108Z" fill="#472652"/>
<path opacity="0.9" d="M245.975 284.366L214.113 296.964C205.527 300.359 201.33 310.1 204.739 318.722L211.519 335.868C216.1 340.337 220.142 330.683 226.458 328.185L258.32 315.587C266.906 312.192 271.102 302.451 267.693 293.829C264.284 285.208 254.561 280.971 245.975 284.366Z" fill="#8874CA"/>
</g>
</g>
<path d="M202.22 106.434L193.146 151.647L229.989 179.381L184.776 170.306L157.042 207.149L166.117 161.936L129.274 134.202L174.487 143.277L202.22 106.434Z" fill="#8874CA"/>
<path d="M164.961 117.881L183.371 148.715L218.642 141.961L187.809 160.372L194.562 195.643L176.152 164.809L140.88 171.563L171.714 153.152L164.961 117.881Z" fill="#8874CA"/>
<circle cx="179.755" cy="156.745" r="6.32894" transform="rotate(24.1598 179.755 156.745)" fill="#472652"/>
<path d="M121.871 153.281C115.281 162.701 79.2829 174.44 76.4844 172.482C73.6859 170.524 72.3703 132.684 78.9603 123.264C85.5503 113.843 100.498 112.926 112.348 121.215C124.197 129.504 128.461 143.86 121.871 153.281Z" fill="#8874CA"/>
<path d="M31.0977 191.683C37.6878 182.263 73.6853 170.524 76.4838 172.482C79.2823 174.44 80.598 212.28 74.008 221.7C67.4179 231.121 52.4699 232.038 40.6206 223.749C28.7713 215.46 24.5077 201.104 31.0977 191.683Z" fill="#8874CA"/>
<path d="M57.2831 127.095C66.7037 133.685 78.442 169.683 76.4844 172.481C74.5267 175.28 36.6865 176.596 27.2659 170.006C17.8454 163.416 16.9281 148.467 25.2171 136.618C33.5061 124.769 47.8626 120.505 57.2831 127.095Z" fill="#8874CA"/>
<path d="M95.6856 217.868C86.2651 211.278 74.5267 175.28 76.4844 172.482C78.442 169.683 116.282 168.367 125.703 174.957C135.123 181.547 136.041 196.495 127.752 208.345C119.463 220.194 105.106 224.458 95.6856 217.868Z" fill="#8874CA"/>
<path d="M237.85 16.1009C238.672 12.5604 243.568 12.1923 244.91 15.5701L255.93 43.3071C256.535 44.8283 258.065 45.7735 259.696 45.6328L289.431 43.0677C293.053 42.7553 294.916 47.2976 292.118 49.6178L269.144 68.6701C267.884 69.715 267.458 71.4624 268.096 72.97L279.724 100.458C281.14 103.805 277.396 106.98 274.325 105.037L249.106 89.0746C247.722 88.1991 245.929 88.334 244.692 89.4064L222.143 108.96C219.397 111.341 215.22 108.761 216.12 105.24L223.507 76.3223C223.913 74.7363 223.23 73.0722 221.828 72.2274L196.264 56.8245C193.15 54.9487 194.313 50.1789 197.94 49.9463L227.725 48.0364C229.359 47.9317 230.731 46.7684 231.101 45.1738L237.85 16.1009Z" fill="#8874CA"/>
<path d="M261.011 111.283C262.37 110.077 264.473 111.343 264.043 113.109L260.653 127.039C260.459 127.835 260.81 128.663 261.516 129.077L273.879 136.336C275.447 137.257 274.892 139.648 273.08 139.785L258.784 140.865C257.967 140.926 257.288 141.516 257.112 142.315L254.029 156.317C253.638 158.092 251.192 158.304 250.502 156.623L245.057 143.359C244.746 142.602 243.976 142.138 243.161 142.218L228.892 143.613C227.083 143.789 226.126 141.529 227.512 140.353L238.443 131.076C239.067 130.546 239.27 129.67 238.943 128.92L233.207 115.78C232.48 114.114 234.334 112.506 235.881 113.46L248.082 120.99C248.778 121.419 249.674 121.342 250.286 120.799L261.011 111.283Z" fill="#8874CA"/>
</g>
<defs>
<clipPath id="clip0_1_8586">
<rect width="297" height="420" fill="white"/>
</clipPath>
<clipPath id="clip1_1_8586">
<rect width="150.419" height="150.419" fill="white" transform="translate(77.3979 222.003) rotate(-21.5742)"/>
</clipPath>
</defs>
</svg>
